# xmcd
# 
# Track frame offsets:
#     150
#     12821
#     23675
#     34556
#     44815
#     53015
#     62033
#     74141
#     83486
#     91065
#     99487
#     111201
#     122341
#     129070
#     141391
# 
# Disc length: 2025
# 
# Revision: 5
# Processed by: cddbd v1.5.2PL0 Copyright (c) Steve Scherf et al.
# Submitted via: fre:ac v1.0.31
# 
DISCID=bd07e70f
DTITLE=Johnny Cash - The Ultimate Collection [CD2]
DYEAR=2008
DGENRE=Country
TTITLE0=Folsom Prison blues
TTITLE1=I heard that lonesome whistle
TTITLE2=Belshazar
TTITLE3=There you go
TTITLE4=Guess things happen that way
TTITLE5=Life goes on
TTITLE6=You're the nearest thing to heaven
TTITLE7=Luther played the boogie
TTITLE8=Come in stranger
TTITLE9=Country boy
TTITLE10=Wide open road
TTITLE11=Don't make me go
TTITLE12=Leave that junk alone
TTITLE13=Next in line
TTITLE14=Cold cold heart
EXTD=
EXTT0=
EXTT1=
EXTT2=
EXTT3=
EXTT4=
EXTT5=
EXTT6=
EXTT7=
EXTT8=
EXTT9=
EXTT10=
EXTT11=
EXTT12=
EXTT13=
EXTT14=
PLAYORDER=
